<?xml version="1.0" encoding="UTF-8"?>
<!-- Created with Inkscape (http://www.inkscape.org/) -->
<svg width="92.9mm" height="75mm" version="1.1" viewBox="0 0 92.888497 75.000206" xmlns="http://www.w3.org/2000/svg" xmlns:cc="http://creativecommons.org/ns#" xmlns:dc="http://purl.org/dc/elements/1.1/" xmlns:rdf="http://www.w3.org/1999/02/22-rdf-syntax-ns#">
	<metadata>
		<rdf:RDF>
			<cc:Work rdf:about="">
				<dc:format>image/svg+xml</dc:format>
				<dc:type rdf:resource="http://purl.org/dc/dcmitype/StillImage"/>
				<dc:title/>
			</cc:Work>
		</rdf:RDF>
	</metadata>
	<g transform="translate(-132 -55.8)">
		<g id="frag4">
			<g fill="none" stroke="#cd813c" stroke-width=".7">
				<path d="m150 69.5 22 17.3"/>
				<path d="m172 86.8-21.6 7.67"/>
				<path d="m174 62-2.07 24.8"/>
				<path d="m192 73.9-19.8 12.8"/>
			</g>
			<g transform="translate(147 69.9)">
				<g id="reader" transform="matrix(.265 0 0 .265 18.9 10.6)">
					<rect width="48" height="48" fill="none"/>
					<g>
						<path d="m39 41h-30v-35h21l9 10v4.68z" fill="#fff" stroke="#fff" stroke-linejoin="round" stroke-width="12"/>
						<path d="m39 41h-30v-35h21l9 10z" stroke="#000" stroke-linejoin="round" stroke-width="4"/>
						<path d="m37 16-0.00343 23-26-0.00391 0.0165-31 18-0.0181z" fill="#fff"/>
					</g>
					<g fill="none" stroke="#000" stroke-linecap="round" stroke-width="4">
						<path d="m15 16h13"/>
						<path d="m14.9 24h8"/>
						<path d="m15 32h18"/>
					</g>
				</g>
				<text x="25" y="26" fill="none" font-family="sans-serif" font-size="10.6px" letter-spacing="0px" stroke="#000000" stroke-width=".265px" text-align="center" text-anchor="middle" word-spacing="0px" style="line-height:2.64583325px" xml:space="preserve"><tspan x="25" y="26" fill="#ffffff" font-size="2.82px" stroke="none" stroke-width=".265px" text-align="center" text-anchor="middle" style="line-height:2.64583325px">reader.c</tspan></text>
			</g>
			<g transform="translate(125 52.6)">
				<g id="frag1-9-15-1" transform="matrix(.265 0 0 .265 18.9 10.6)">
					<rect width="48" height="48" fill="none"/>
					<g>
						<path d="m39 41h-30v-35h21l9 10v4.68z" fill="#fff" stroke="#fff" stroke-linejoin="round" stroke-width="12"/>
						<path d="m39 41h-30v-35h21l9 10z" stroke="#000" stroke-linejoin="round" stroke-width="4"/>
						<path d="m37 16-0.00343 23-26-0.00391 0.0165-31 18-0.0181z" fill="#fff"/>
					</g>
					<g fill="none" stroke="#000" stroke-linecap="round" stroke-width="4">
						<path d="m15 16h13"/>
						<path d="m14.9 24h8"/>
						<path d="m15 32h18"/>
					</g>
				</g>
				<text x="25" y="26" fill="none" font-family="sans-serif" font-size="10.6px" letter-spacing="0px" stroke="#000000" stroke-width=".265px" text-align="center" text-anchor="middle" word-spacing="0px" style="line-height:2.64583325px" xml:space="preserve"><tspan x="25" y="26" fill="#ffffff" font-size="2.82px" stroke="none" stroke-width=".265px" text-align="center" text-anchor="middle" style="line-height:2.64583325px">network_reader.c</tspan></text>
			</g>
			<g transform="translate(149 45.1)">
				<g id="frag1-9-15-6" transform="matrix(.265 0 0 .265 18.9 10.6)">
					<rect width="48" height="48" fill="none"/>
					<g>
						<path d="m39 41h-30v-35h21l9 10v4.68z" fill="#fff" stroke="#fff" stroke-linejoin="round" stroke-width="12"/>
						<path d="m39 41h-30v-35h21l9 10z" stroke="#000" stroke-linejoin="round" stroke-width="4"/>
						<path d="m37 16-0.00343 23-26-0.00391 0.0165-31 18-0.0181z" fill="#fff"/>
					</g>
					<g fill="none" stroke="#000" stroke-linecap="round" stroke-width="4">
						<path d="m15 16h13"/>
						<path d="m14.9 24h8"/>
						<path d="m15 32h18"/>
					</g>
				</g>
				<text x="25" y="26" fill="none" font-family="sans-serif" font-size="10.6px" letter-spacing="0px" stroke="#000000" stroke-width=".265px" text-align="center" text-anchor="middle" word-spacing="0px" style="line-height:2.64583325px" xml:space="preserve"><tspan x="25" y="26" fill="#ffffff" font-size="2.82px" stroke="none" stroke-width=".265px" text-align="center" text-anchor="middle" style="line-height:2.64583325px">file_reader.c</tspan></text>
			</g>
			<g transform="translate(167 57.1)">
				<g id="frag1-9-15-8" transform="matrix(.265 0 0 .265 18.9 10.6)">
					<rect width="48" height="48" fill="none"/>
					<g>
						<path d="m39 41h-30v-35h21l9 10v4.68z" fill="#fff" stroke="#fff" stroke-linejoin="round" stroke-width="12"/>
						<path d="m39 41h-30v-35h21l9 10z" stroke="#000" stroke-linejoin="round" stroke-width="4"/>
						<path d="m37 16-0.00343 23-26-0.00391 0.0165-31 18-0.0181z" fill="#fff"/>
					</g>
					<g fill="none" stroke="#000" stroke-linecap="round" stroke-width="4">
						<path d="m15 16h13"/>
						<path d="m14.9 24h8"/>
						<path d="m15 32h18"/>
					</g>
				</g>
				<text x="25" y="26" fill="none" font-family="sans-serif" font-size="10.6px" letter-spacing="0px" stroke="#000000" stroke-width=".265px" text-align="center" text-anchor="middle" word-spacing="0px" style="line-height:2.64583325px" xml:space="preserve"><tspan x="25" y="26" fill="#ffffff" font-size="2.82px" stroke="none" stroke-width=".265px" text-align="center" text-anchor="middle" style="line-height:2.64583325px">yolo_reader.c</tspan></text>
			</g>
		</g>
		<g id="frag3">
			<path d="m151 92.6 14.7 25" fill="none" stroke="#cd813c" stroke-width=".7"/>
			<g transform="translate(126 75.7)">
				<g id="xml_parser" transform="matrix(.265 0 0 .265 18.9 10.6)">
					<rect width="48" height="48" fill="none"/>
					<g>
						<path d="m39 41h-30v-35h21l9 10v4.68z" fill="#fff" stroke="#fff" stroke-linejoin="round" stroke-width="12"/>
						<path d="m39 41h-30v-35h21l9 10z" stroke="#000" stroke-linejoin="round" stroke-width="4"/>
						<path d="m37 16-0.00343 23-26-0.00391 0.0165-31 18-0.0181z" fill="#fff"/>
					</g>
					<g fill="none" stroke="#000" stroke-linecap="round" stroke-width="4">
						<path d="m15 16h13"/>
						<path d="m14.9 24h8"/>
						<path d="m15 32h18"/>
					</g>
				</g>
				<text x="25" y="26" fill="none" font-family="sans-serif" font-size="10.6px" letter-spacing="0px" stroke="#000000" stroke-width=".265px" text-align="center" text-anchor="middle" word-spacing="0px" style="line-height:2.64583325px" xml:space="preserve"><tspan x="25" y="26" fill="#ffffff" font-size="2.82px" stroke="none" stroke-width=".265px" text-align="center" text-anchor="middle" style="line-height:2.64583325px">xml_parser.c</tspan></text>
			</g>
		</g>
		<g id="frag2">
			<g fill="none" stroke="#cd813c" stroke-width=".7">
				<path d="m202 92.4-36 25.2"/>
				<path d="m213 109-47.5 8.26"/>
				<path d="m203 121-37.3-3.21"/>
			</g>
			<g transform="translate(-1.46 -.661)">
				<g id="button" transform="matrix(.265 0 0 .265 214 103)">
					<rect width="48" height="48" fill="none"/>
					<g>
						<path d="m39 41h-30v-35h21l9 10v4.68z" fill="#fff" stroke="#fff" stroke-linejoin="round" stroke-width="12"/>
						<path d="m39 41h-30v-35h21l9 10z" stroke="#000" stroke-linejoin="round" stroke-width="4"/>
						<path d="m37 16-0.00343 23-26-0.00391 0.0165-31 18-0.0181z" fill="#fff"/>
					</g>
					<g fill="none" stroke="#000" stroke-linecap="round" stroke-width="4">
						<path d="m15 16h13"/>
						<path d="m14.9 24h8"/>
						<path d="m15 32h18"/>
					</g>
				</g>
				<text x="219.59148" y="118.25174" fill="none" font-family="sans-serif" font-size="10.6px" letter-spacing="0px" stroke="#000000" stroke-width=".265px" text-align="center" text-anchor="middle" word-spacing="0px" style="line-height:2.64583325px" xml:space="preserve"><tspan x="219.59148" y="118.25174" fill="#ffffff" font-size="2.82px" stroke="none" stroke-width=".265px" text-align="center" text-anchor="middle" style="line-height:2.64583325px">button.c</tspan></text>
			</g>
			<g transform="translate(176 75.5)">
				<g id="wizard_helper" transform="matrix(.265 0 0 .265 18.9 10.6)">
					<rect width="48" height="48" fill="none"/>
					<g>
						<path d="m39 41h-30v-35h21l9 10v4.68z" fill="#fff" stroke="#fff" stroke-linejoin="round" stroke-width="12"/>
						<path d="m39 41h-30v-35h21l9 10z" stroke="#000" stroke-linejoin="round" stroke-width="4"/>
						<path d="m37 16-0.00343 23-26-0.00391 0.0165-31 18-0.0181z" fill="#fff"/>
					</g>
					<g fill="none" stroke="#000" stroke-linecap="round" stroke-width="4">
						<path d="m15 16h13"/>
						<path d="m14.9 24h8"/>
						<path d="m15 32h18"/>
					</g>
				</g>
				<text x="25" y="26" fill="none" font-family="sans-serif" font-size="10.6px" letter-spacing="0px" stroke="#000000" stroke-width=".265px" text-align="center" text-anchor="middle" word-spacing="0px" style="line-height:2.64583325px" xml:space="preserve"><tspan x="25" y="26" fill="#ffffff" font-size="2.82px" stroke="none" stroke-width=".265px" text-align="center" text-anchor="middle" style="line-height:2.64583325px">wizard_helper.c</tspan></text>
			</g>
			<g transform="translate(178 104)">
				<g id="text_box" transform="matrix(.265 0 0 .265 18.9 10.6)">
					<rect width="48" height="48" fill="none"/>
					<g>
						<path d="m39 41h-30v-35h21l9 10v4.68z" fill="#fff" stroke="#fff" stroke-linejoin="round" stroke-width="12"/>
						<path d="m39 41h-30v-35h21l9 10z" stroke="#000" stroke-linejoin="round" stroke-width="4"/>
						<path d="m37 16-0.00343 23-26-0.00391 0.0165-31 18-0.0181z" fill="#fff"/>
					</g>
					<g fill="none" stroke="#000" stroke-linecap="round" stroke-width="4">
						<path d="m15 16h13"/>
						<path d="m14.9 24h8"/>
						<path d="m15 32h18"/>
					</g>
				</g>
				<text x="25" y="26" fill="none" font-family="sans-serif" font-size="10.6px" letter-spacing="0px" stroke="#000000" stroke-width=".265px" text-align="center" text-anchor="middle" word-spacing="0px" style="line-height:2.64583325px" xml:space="preserve"><tspan x="25" y="26" fill="#ffffff" font-size="2.82px" stroke="none" stroke-width=".265px" text-align="center" text-anchor="middle" style="line-height:2.64583325px">text_box.c</tspan></text>
			</g>
		</g>
		<g id="frag1">
			<path d="m138 122 27.7-5.79" fill="none" stroke="#cd813c" stroke-width=".7"/>
			<g id="window">
				<g transform="matrix(.265 0 0 .265 160 110)">
					<rect width="48" height="48" fill="none"/>
					<g>
						<path d="m39 41h-30v-35h21l9 10v4.68z" fill="#fff" stroke="#fff" stroke-linejoin="round" stroke-width="12"/>
						<path d="m39 41h-30v-35h21l9 10z" stroke="#000" stroke-linejoin="round" stroke-width="4"/>
						<path d="m37 16-0.00343 23-26-0.00391 0.0165-31 18-0.0181z" fill="#fff"/>
					</g>
					<g fill="none" stroke="#000" stroke-linecap="round" stroke-width="4">
						<path d="m15 16h13"/>
						<path d="m14.9 24h8"/>
						<path d="m15 32h18"/>
					</g>
				</g>
				<text x="165.59811" y="125.22048" fill="none" font-family="sans-serif" font-size="10.6px" letter-spacing="0px" stroke="#000000" stroke-width=".265px" text-align="center" text-anchor="middle" word-spacing="0px" style="line-height:2.64583325px" xml:space="preserve"><tspan x="165.59811" y="125.22048" fill="#ffffff" font-size="2.82px" stroke="none" stroke-width=".265px" text-align="center" text-anchor="middle" style="line-height:2.64583325px">window.c</tspan></text>
			</g>
		</g>
		<g transform="translate(113 103)">
			<g id="main" transform="matrix(.265 0 0 .265 18.9 10.6)">
				<rect width="48" height="48" fill="none"/>
				<g>
					<path d="m39 41h-30v-35h21l9 10v4.68z" fill="#fff" stroke="#fff" stroke-linejoin="round" stroke-width="12"/>
					<path d="m39 41h-30v-35h21l9 10z" stroke="#000" stroke-linejoin="round" stroke-width="4"/>
					<path d="m37 16-0.00343 23-26-0.00391 0.0165-31 18-0.0181z" fill="#fff"/>
				</g>
				<g fill="none" stroke="#000" stroke-linecap="round" stroke-width="4">
					<path d="m15 16h13"/>
					<path d="m14.9 24h8"/>
					<path d="m15 32h18"/>
				</g>
			</g>
			<text x="25" y="26" fill="none" font-family="sans-serif" font-size="10.6px" letter-spacing="0px" stroke="#000000" stroke-width=".265px" text-align="center" text-anchor="middle" word-spacing="0px" style="line-height:2.64583325px" xml:space="preserve"><tspan x="25" y="26" fill="#ffffff" font-size="2.82px" stroke="none" stroke-width=".265px" text-align="center" text-anchor="middle" style="line-height:2.64583325px">main.c</tspan></text>
		</g>
		<g id="bug" transform="matrix(.258 0 0 .258 144 63.4)">
			<g fill="#ff8383">
				<rect transform="rotate(225)" x="-17.3" y="-3.27" width="10.6" height="9" rx=".727" ry=".727"/>
				<rect transform="rotate(45)" x="51.3" y="-3.61" width="10.6" height="9" rx=".727" ry=".727"/>
				<rect transform="matrix(.707 -.707 -.707 -.707 0 0)" x="16.8" y="-37" width="10.6" height="9" rx=".727" ry=".727"/>
				<rect transform="matrix(-.707 .707 .707 .707 0 0)" x="17.1" y="30.1" width="10.6" height="9" rx=".727" ry=".727"/>
				<rect x="37.4" y="22" width="10.6" height="9" rx=".727" ry=".727"/>
				<rect y="22" width="10.6" height="9" rx=".727" ry=".727"/>
				<circle transform="matrix(.975 0 0 1.18 -3.6 -1.31)" cx="27.8" cy="23.2" r="17.4" stroke="#ff8383" stroke-linecap="round" stroke-width="2.8"/>
			</g>
			<g fill="none" stroke="#000">
				<path d="m41.5 42.4-34.2-36.9" stroke-width="3"/>
				<path d="m3.07 26.5h42.1" stroke-width="3"/>
				<path d="m6.5 42.2 34.2-36.9" stroke-width="3"/>
			</g>
			<circle transform="matrix(.803 0 0 1 1.18 2.69)" cx="27.8" cy="23.2" r="17.4" fill="#ff8383" stroke="#000" stroke-linecap="round" stroke-width="3.34"/>
			<path d="m24 20v23.5" fill="none" stroke="#000" stroke-width="4"/>
			<path d="m8.56 21h29.9s-2.94-14-14.8-13.9c-11.9 0.0625-15.1 13.9-15.1 13.9z" fill-rule="evenodd"/>
			<rect width="48" height="48" rx="0" ry="0" fill="none" opacity=".6"/>
		</g>
	</g>
</svg>
