<?xml version="1.0" encoding="UTF-8" standalone="no"?>
<!-- Generator: Adobe Illustrator 15.0.1, SVG Export Plug-In . SVG Version: 6.00 Build 0)  -->

<svg
   xmlns:dc="http://purl.org/dc/elements/1.1/"
   xmlns:cc="http://creativecommons.org/ns#"
   xmlns:rdf="http://www.w3.org/1999/02/22-rdf-syntax-ns#"
   xmlns:svg="http://www.w3.org/2000/svg"
   xmlns="http://www.w3.org/2000/svg"
   xmlns:sodipodi="http://sodipodi.sourceforge.net/DTD/sodipodi-0.dtd"
   xmlns:inkscape="http://www.inkscape.org/namespaces/inkscape"
   version="1.1"
   id="svg2"
   x="0px"
   y="0px"
   width="299.86996"
   height="300.0004"
   viewBox="0 0 299.86995 300.0004"
   enable-background="new 0 0 304.868 305"
   xml:space="preserve"
   inkscape:version="0.91 r13725"
   sodipodi:docname="intro.svg"><metadata
     id="metadata3388"><rdf:RDF><cc:Work
         rdf:about=""><dc:format>image/svg+xml</dc:format><dc:type
           rdf:resource="http://purl.org/dc/dcmitype/StillImage" /><dc:title></dc:title></cc:Work></rdf:RDF></metadata><defs
     id="defs3386" /><sodipodi:namedview
     pagecolor="#ffffff"
     bordercolor="#666666"
     borderopacity="1"
     objecttolerance="10"
     gridtolerance="10"
     guidetolerance="10"
     inkscape:pageopacity="0"
     inkscape:pageshadow="2"
     inkscape:window-width="773"
     inkscape:window-height="480"
     id="namedview3384"
     showgrid="false"
     inkscape:zoom="0.52627292"
     inkscape:cx="185.80137"
     inkscape:cy="118.28563"
     inkscape:window-x="2602"
     inkscape:window-y="400"
     inkscape:window-maximized="0"
     inkscape:current-layer="svg2"
     fit-margin-bottom="0"
     fit-margin-top="0"
     fit-margin-left="0"
     fit-margin-right="0" /><path
     id="path2090"
     d="m 150.045,0.051396 c 77.369,29.031 124.325,121.819004 84.106,196.976004 l -98.158,-98.643004 37.464,-37.618 -23.435,-23.332 c -12.921,12.668 -33.477,15.367 -47.335,9.781 l -74.608,74.672004 42.254,42.113 28.158,-28.056 98.126,98.499 C 148.6,260.8164 82.036,252.4984 32.913,201.4604 l -23.787,23.716 c 7.125,9.883 13.098,18.832 20.512,26.343 -0.636,0.772 -2.681,2.457 -2.721,2.509 -1.252,-0.212 -2.724,-0.696 -4.035,-0.696 -12.658,0 -22.882,11.028 -22.882,23.687 0,12.659 10.326,22.981 22.984,22.981 12.658,0 23.485,-10.425 23.485,-23.083 0,-1.475 -0.327,-2.823 -0.595,-4.222 l 3.666,-3.588 c 56.479,38.111 118.37,42.857 184.972,2.992 l 27.507,27.602 37.638,-37.148 -27.679,-27.975 C 351.42,114.8174 245.504,-2.816604 150.045,0.051396 Z"
     style="fill:#de2910;fill-opacity:1"
     inkscape:connector-curvature="0" /></svg>